<svg xmlns="http://www.w3.org/2000/svg" viewBox="0 0 64 64" width="64" height="64" role="img" aria-label="Swagatham Foundation">
  <defs>
    <linearGradient id="swg" x1="0" y1="0" x2="1" y2="1">
      <stop offset="0%" stop-color="#38bdf8"/>
      <stop offset="55%" stop-color="#2563eb"/>
      <stop offset="100%" stop-color="#1e3a8a"/>
    </linearGradient>
    <filter id="s" x="-20%" y="-20%" width="140%" height="140%">
      <feDropShadow dx="0" dy="1" stdDeviation="1" flood-opacity="0.15"/>
    </filter>
  </defs>
  <rect x="2" y="2" width="60" height="60" rx="16" fill="url(#swg)" filter="url(#s)"/>
  <path
    d="M32 14c-6.5 0-11.5 5.2-11.5 11.8 0 4.2 2.1 7.8 5.3 10.2L32 42l6.2-5.9c3.2-2.4 5.3-6 5.3-10.2C43.5 19.2 38.5 14 32 14z"
    fill="#ffffff"
    opacity="0.98"
  />
  <path
    d="M20 48c4-6 8.5-9 12-9s8 3 12 9"
    fill="none"
    stroke="#e0f2fe"
    stroke-width="3.2"
    stroke-linecap="round"
    opacity="0.95"
  />
  <path
    d="M24 26c3 3.5 5.5 5 8 5s5-1.5 8-5"
    fill="none"
    stroke="#1d4ed8"
    stroke-width="2"
    stroke-linecap="round"
    opacity="0.85"
  />
</svg>
